<svg class="svg-icon" style="width: 1em; height: 1em;vertical-align: middle;fill: currentColor;overflow: hidden;" viewBox="0 0 1024 1024" version="1.1" xmlns="http://www.w3.org/2000/svg"><path d="M786.285714 438.857143q22.857143 0 38.857143 16t16 38.857143v329.142857q0 22.857143-16 38.857143t-38.857143 16H237.714286q-22.857143 0-38.857143-16t-16-38.857143V493.714286q0-22.857143 16-38.857143t38.857143-16h18.285714V256q0-105.714286 75.142857-180.857143T512 0t180.857143 75.142857T768 256q0 14.857143-10.857143 25.714286t-25.714286 10.857143h-36.571428q-14.857143 0-25.714286-10.857143t-10.857143-25.714286q0-60.571429-42.857143-103.428571t-103.428571-42.857143-103.428571 42.857143-42.857143 103.428571v182.857143h420.571428z"  /></svg>